<svg width="58" height="61" viewBox="0 0 58 61" fill="none" xmlns="http://www.w3.org/2000/svg">
<g id="joystick-svgrepo-com 1">
<path id="Vector" fill-rule="evenodd" clip-rule="evenodd" d="M38.0093 10.1667C38.0093 14.9109 34.9721 18.8961 30.8645 20.018C30.8764 20.1213 30.8826 20.2266 30.8826 20.3333V24.9015C30.8954 24.9063 30.9082 24.9112 30.921 24.9161L47.8926 31.4531C50.9726 32.6396 52.4293 35.6568 52.2628 38.5749V47.1695C52.2628 50.4516 50.2998 53.3653 47.3897 54.4031L30.7607 60.3338C29.2978 60.8554 27.7161 60.8554 26.2533 60.3338L9.62427 54.4031C6.71412 53.3653 4.7512 50.4516 4.7512 47.1695V38.5746C4.58479 35.6563 6.04149 32.6393 9.12129 31.4531L26.0929 24.9161C26.1057 24.9112 26.1186 24.9063 26.1314 24.9015V20.3333C26.1314 20.2266 26.1376 20.1213 26.1495 20.018C22.0419 18.8961 19.0047 14.9109 19.0047 10.1667C19.0047 4.55177 23.259 0 28.507 0C33.7549 0 38.0093 4.55177 38.0093 10.1667ZM26.1314 30.304L10.7306 36.236C9.9033 36.5545 9.48962 37.3399 9.48955 38.125H9.50236C9.50236 38.9742 9.97101 39.7219 10.7306 40.0145L27.7024 46.5514C28.2224 46.7517 28.7916 46.7517 29.3116 46.5514L46.2834 40.0145C47.0429 39.7219 47.5116 38.9742 47.5116 38.125H47.5244C47.5244 37.3399 47.1106 36.5545 46.2834 36.236L30.8826 30.304V38.125C30.8826 39.5288 29.819 40.6667 28.507 40.6667C27.1949 40.6667 26.1314 39.5288 26.1314 38.125V30.304ZM23.7084 10.1667C23.7084 13.0021 25.8568 15.3007 28.507 15.3007C31.1572 15.3007 33.3054 13.0021 33.3054 10.1667C33.3054 7.33121 31.1572 5.03263 28.507 5.03263C25.8568 5.03263 23.7084 7.33121 23.7084 10.1667ZM9.50236 47.1695V44.944L26.0929 51.3343C27.6534 51.9351 29.3608 51.9351 30.921 51.3343L47.5116 44.944V47.1695C47.5116 48.2635 46.8574 49.2349 45.8872 49.5808L29.2581 55.5113C28.7707 55.6851 28.2433 55.6851 27.7558 55.5113L11.1267 49.5808C10.1567 49.2349 9.50236 48.2635 9.50236 47.1695Z" fill="white"/>
</g>
</svg>
