<svg width="28" height="27" viewBox="0 0 28 27" fill="none" xmlns="http://www.w3.org/2000/svg">
<g id="star-outline-svgrepo-com 1" clip-path="url(#clip0_15_301)">
<g id="Group">
<path id="Vector" d="M27.3422 10.4057C27.2502 10.1237 27.0011 9.92245 26.7063 9.89103L18.0661 9.01422L14.5626 1.06983C14.4429 0.800506 14.1744 0.623947 13.8781 0.623947C13.5819 0.623947 13.3133 0.79901 13.1936 1.07133L9.68933 9.01497L1.05068 9.89103C0.755914 9.92096 0.506039 10.1244 0.414767 10.4057C0.322747 10.6878 0.406538 10.9975 0.627984 11.195L7.1008 16.984L5.26564 25.4701C5.20355 25.7596 5.31726 26.0589 5.55741 26.2332C5.68833 26.3282 5.84245 26.3761 5.99731 26.3761C6.12674 26.3761 6.25691 26.3424 6.37362 26.2736L13.8789 21.9045L21.3826 26.2736C21.6385 26.421 21.9587 26.4067 22.1988 26.2294C22.4382 26.0581 22.5534 25.7559 22.4913 25.4663L20.6562 16.9796L27.1297 11.1913C27.3497 10.9968 27.4342 10.687 27.3422 10.4057ZM19.3327 16.1581C19.1322 16.3377 19.0432 16.6107 19.1001 16.8741L20.6689 24.1272L14.2544 20.394C14.0218 20.2579 13.7345 20.2579 13.5018 20.394L7.08584 24.1272L8.65467 16.8741C8.71152 16.6107 8.6225 16.3377 8.422 16.1581L2.88883 11.2107L10.2729 10.4611C10.5407 10.4349 10.7726 10.2636 10.8818 10.0182L13.8774 3.22744L16.8721 10.0182C16.9814 10.2636 17.2133 10.4349 17.4811 10.4611L24.8651 11.2107L19.3327 16.1581Z" fill="white"/>
</g>
</g>
<defs>
<clipPath id="clip0_15_301">
<rect width="27" height="27" fill="white" transform="translate(0.378174)"/>
</clipPath>
</defs>
</svg>
