<svg width="28" height="27" viewBox="0 0 28 27" fill="none" xmlns="http://www.w3.org/2000/svg">
<g id="star-outline-svgrepo-com 1" clip-path="url(#clip0_15_356)">
<g id="Group">
<path id="Vector" d="M27.3422 10.4057C27.2502 10.1237 27.0011 9.92245 26.7063 9.89103L18.0661 9.01422L14.5626 1.06983C14.4429 0.800506 14.1744 0.623947 13.8781 0.623947C13.5819 0.623947 13.3133 0.79901 13.1936 1.07133L9.68933 9.01497L1.05068 9.89103C0.755914 9.92096 0.506039 10.1244 0.414767 10.4057C0.322747 10.6878 0.406538 10.9975 0.627984 11.195L7.1008 16.984L5.26564 25.4701C5.20355 25.7596 5.31726 26.0589 5.55741 26.2332C5.68833 26.3282 5.84245 26.3761 5.99731 26.3761C6.12674 26.3761 6.25691 26.3424 6.37362 26.2736L13.8789 21.9045L21.3826 26.2736C21.6385 26.421 21.9587 26.4067 22.1988 26.2294C22.4382 26.0581 22.5534 25.7559 22.4913 25.4663L20.6562 16.9796L27.1297 11.1913C27.3497 10.9968 27.4342 10.687 27.3422 10.4057ZM19.3327 16.1581C19.1322 16.3377 19.0432 16.6107 19.1001 16.8741L20.6689 24.1272L14.2544 20.394C14.0218 20.2579 13.7345 20.2579 13.5018 20.394L7.08584 24.1272L8.65467 16.8741C8.71152 16.6107 8.6225 16.3377 8.422 16.1581L2.88883 11.2107L10.2729 10.4611C10.5407 10.4349 10.7726 10.2636 10.8818 10.0182L13.8774 3.22744L16.8721 10.0182C16.9814 10.2636 17.2133 10.4349 17.4811 10.4611L24.8651 11.2107L19.3327 16.1581Z" fill="#FFFB62"/>
<path id="Vector_2" d="M25.9674 11.3566C25.8856 11.1156 25.6641 10.9437 25.4021 10.9169L17.7223 10.1678L14.6082 3.38092C14.5018 3.15083 14.263 3 13.9997 3C13.7364 3 13.4977 3.14956 13.3913 3.3822L10.2765 10.1684L2.59798 10.9169C2.33597 10.9424 2.11387 11.1163 2.03274 11.3566C1.95095 11.5975 2.02543 11.8621 2.22226 12.0309L7.97566 16.9764L6.34447 24.226C6.28928 24.4734 6.39035 24.729 6.60381 24.8779C6.72018 24.9591 6.85717 25 6.99482 25C7.10986 25 7.22557 24.9712 7.3293 24.9124L14.0004 21.1799L20.6701 24.9124C20.8975 25.0383 21.1822 25.0262 21.3956 24.8747C21.6084 24.7284 21.7108 24.4702 21.6556 24.2228L20.0244 16.9726L25.7785 12.0277C25.974 11.8615 26.0491 11.5969 25.9674 11.3566ZM18.8481 16.2708C18.6699 16.4242 18.5907 16.6575 18.6413 16.8825L20.0357 23.0788L14.3342 19.8895C14.1274 19.7732 13.872 19.7732 13.6652 19.8895L7.96236 23.0788L9.35683 16.8825C9.40737 16.6575 9.32823 16.4242 9.15002 16.2708L4.23183 12.0443L10.7952 11.4039C11.0332 11.3815 11.2394 11.2351 11.3365 11.0255L13.999 5.22416L16.661 11.0255C16.758 11.2351 16.9642 11.3815 17.2023 11.4039L23.7656 12.0443L18.8481 16.2708Z" fill="#FFFB62"/>
<path id="Vector_3" d="M24.9701 11.5969C24.8951 11.3778 24.6921 11.2215 24.4519 11.1971L17.4121 10.5162L14.5575 4.34629C14.46 4.13712 14.2411 4 13.9997 4C13.7584 4 13.5395 4.13596 13.442 4.34745L10.5868 10.5168L3.54814 11.1971C3.30798 11.2204 3.10438 11.3784 3.03001 11.5969C2.95504 11.8159 3.02331 12.0565 3.20374 12.2099L8.47769 16.7058L6.98243 23.2964C6.93184 23.5212 7.02449 23.7536 7.22016 23.889C7.32684 23.9628 7.45241 24 7.57859 24C7.68404 24 7.7901 23.9739 7.8852 23.9204L14.0003 20.5272L20.1143 23.9204C20.3228 24.0349 20.5836 24.0238 20.7793 23.8861C20.9744 23.7531 21.0682 23.5183 21.0177 23.2935L19.5224 16.7023L24.797 12.207C24.9762 12.0559 25.045 11.8154 24.9701 11.5969ZM18.4441 16.0644C18.2807 16.2038 18.2082 16.4159 18.2545 16.6204L19.5328 22.2534L14.3063 19.3541C14.1168 19.2484 13.8827 19.2484 13.6931 19.3541L8.4655 22.2534L9.74376 16.6204C9.79009 16.4159 9.71755 16.2038 9.55418 16.0644L5.04584 12.2221L11.0622 11.6399C11.2805 11.6195 11.4694 11.4865 11.5584 11.2959L13.9991 6.02196L16.4392 11.2959C16.5282 11.4865 16.7172 11.6195 16.9354 11.6399L22.9518 12.2221L18.4441 16.0644Z" fill="#FFFB62"/>
<path id="Vector_4" d="M23.9728 11.8372C23.9046 11.6401 23.7201 11.4994 23.5018 11.4774L17.1019 10.8646L14.5068 5.31166C14.4181 5.12341 14.2192 5 13.9998 5C13.7803 5 13.5814 5.12236 13.4927 5.31271L10.8971 10.8651L4.49831 11.4774C4.27998 11.4983 4.09489 11.6406 4.02729 11.8372C3.95913 12.0343 4.02119 12.2508 4.18522 12.3889L8.97972 16.4352L7.62039 22.3667C7.5744 22.5691 7.65863 22.7783 7.83651 22.9001C7.93349 22.9665 8.04764 23 8.16235 23C8.25822 23 8.35464 22.9765 8.44109 22.9284L14.0003 19.8745L19.5584 22.9284C19.748 23.0314 19.9851 23.0214 20.163 22.8975C20.3403 22.7778 20.4257 22.5665 20.3797 22.3641L19.0204 16.4321L23.8154 12.3863C23.9783 12.2503 24.041 12.0338 23.9728 11.8372ZM18.0401 15.8579C17.8916 15.9834 17.8256 16.1743 17.8677 16.3584L19.0298 21.4281L14.2785 18.8187C14.1062 18.7235 13.8934 18.7235 13.721 18.8187L8.96864 21.4281L10.1307 16.3584C10.1728 16.1743 10.1069 15.9834 9.95835 15.8579L5.85986 12.3999L11.3293 11.8759C11.5277 11.8576 11.6995 11.7378 11.7804 11.5663L13.9992 6.81977L16.2175 11.5663C16.2984 11.7378 16.4702 11.8576 16.6685 11.8759L22.138 12.3999L18.0401 15.8579Z" fill="#FFFB62"/>
<path id="Vector_5" d="M22.9755 12.0775C22.9142 11.9023 22.7481 11.7772 22.5516 11.7577L16.7917 11.2129L14.4561 6.27703C14.3763 6.1097 14.1973 6 13.9998 6C13.8023 6 13.6232 6.10877 13.5434 6.27796L11.2074 11.2134L5.44848 11.7577C5.25198 11.7763 5.0854 11.9027 5.02456 12.0775C4.96321 12.2527 5.01907 12.4452 5.1667 12.5679L9.48175 16.1647L8.25835 21.4371C8.21696 21.617 8.29277 21.8029 8.45286 21.9112C8.54014 21.9703 8.64288 22 8.74612 22C8.8324 22 8.91918 21.9791 8.99698 21.9363L14.0003 19.2218L19.0026 21.9363C19.1732 22.0279 19.3866 22.0191 19.5467 21.9089C19.7063 21.8025 19.7831 21.6147 19.7417 21.4348L18.5183 16.1619L22.8339 12.5656C22.9805 12.4447 23.0369 12.2523 22.9755 12.0775ZM17.6361 15.6515C17.5024 15.7631 17.443 15.9327 17.481 16.0963L18.5268 20.6028L14.2506 18.2833C14.0955 18.1987 13.904 18.1987 13.7489 18.2833L9.47177 20.6028L10.5176 16.0963C10.5555 15.9327 10.4962 15.7631 10.3625 15.6515L6.67387 12.5777L11.5964 12.1119C11.7749 12.0956 11.9295 11.9892 12.0024 11.8367L13.9993 7.61757L15.9957 11.8367C16.0685 11.9892 16.2231 12.0956 16.4017 12.1119L21.3242 12.5777L17.6361 15.6515Z" fill="#FFFB62"/>
<path id="Vector_6" d="M21.9782 12.3178C21.9237 12.1645 21.7761 12.0551 21.6014 12.038L16.4815 11.5613L14.4054 7.2424C14.3345 7.09599 14.1754 7 13.9998 7C13.8243 7 13.6651 7.09517 13.5942 7.24322L11.5177 11.5617L6.39865 12.038C6.22398 12.0543 6.07591 12.1649 6.02183 12.3178C5.9673 12.4712 6.01695 12.6395 6.14817 12.7469L9.98378 15.8941L8.89631 20.5075C8.85952 20.6649 8.9269 20.8276 9.06921 20.9223C9.14679 20.974 9.23811 21 9.32988 21C9.40657 21 9.48371 20.9817 9.55287 20.9443L14.0003 18.5691L18.4467 20.9443C18.5984 21.0244 18.7881 21.0167 18.9304 20.9203C19.0723 20.8271 19.1405 20.6628 19.1037 20.5054L18.0163 15.8916L21.8523 12.7449C21.9827 12.6391 22.0328 12.4707 21.9782 12.3178ZM17.2321 15.4451C17.1132 15.5427 17.0605 15.6911 17.0942 15.8343L18.0238 19.7774L14.2228 17.7479C14.0849 17.6739 13.9147 17.6739 13.7768 17.7479L9.97491 19.7774L10.9046 15.8343C10.9382 15.6911 10.8855 15.5427 10.7667 15.4451L7.48789 12.7554L11.8635 12.3479C12.0222 12.3337 12.1596 12.2405 12.2243 12.1071L13.9994 8.41537L15.774 12.1071C15.8387 12.2405 15.9761 12.3337 16.1348 12.3479L20.5104 12.7554L17.2321 15.4451Z" fill="#FFFB62"/>
<path id="Vector_7" d="M20.981 12.5581C20.9332 12.4267 20.8041 12.3329 20.6512 12.3183L16.1713 11.9097L14.3548 8.20777C14.2927 8.08227 14.1534 8 13.9998 8C13.8462 8 13.707 8.08158 13.6449 8.20847L11.828 11.9101L7.34882 12.3183C7.19598 12.3322 7.06642 12.4271 7.0191 12.5581C6.97139 12.6896 7.01483 12.8339 7.12965 12.9259L10.4858 15.6235L9.53427 19.5778C9.50208 19.7127 9.56104 19.8522 9.68556 19.9334C9.75344 19.9777 9.83335 20 9.91365 20C9.98075 20 10.0482 19.9843 10.1088 19.9522L14.0002 17.9163L17.8909 19.9522C18.0236 20.0209 18.1896 20.0143 18.3141 19.9317C18.4382 19.8518 18.498 19.711 18.4658 19.5761L17.5142 15.6214L20.8708 12.9242C20.9848 12.8335 21.0287 12.6892 20.981 12.5581ZM16.828 15.2386C16.7241 15.3223 16.6779 15.4495 16.7074 15.5723L17.5208 18.9521L14.1949 17.2125C14.0743 17.149 13.9254 17.149 13.8047 17.2125L10.478 18.9521L11.2915 15.5723C11.321 15.4495 11.2748 15.3223 11.1708 15.2386L8.3019 12.9332L12.1305 12.5839C12.2694 12.5717 12.3896 12.4919 12.4463 12.3775L13.9994 9.21318L15.5522 12.3775C15.6089 12.4919 15.7291 12.5717 15.868 12.5839L19.6966 12.9332L16.828 15.2386Z" fill="#FFFB62"/>
<ellipse id="Ellipse 4" cx="13.5" cy="14.5" rx="6.5" ry="5.5" fill="#FFFB62"/>
</g>
</g>
<defs>
<clipPath id="clip0_15_356">
<rect width="27" height="27" fill="white" transform="translate(0.378174)"/>
</clipPath>
</defs>
</svg>
