<svg width="23" height="25" viewBox="0 0 23 25" fill="none" xmlns="http://www.w3.org/2000/svg">
<g id="trash 1" clip-path="url(#clip0_15_286)">
<path id="Vector" d="M0.378174 7.03265V5.32377C0.41091 4.70532 0.65643 4.18452 1.11473 3.76137C1.57304 3.33822 2.11318 3.12665 2.73517 3.12665H5.09216V2.34545C5.09216 1.69445 5.32131 1.1411 5.77961 0.685395C6.23792 0.229695 6.79443 0.00184536 7.44915 0.00184536H15.3058C15.9605 0.00184536 16.517 0.229695 16.9753 0.685395C17.4336 1.1411 17.6628 1.69445 17.6628 2.34545V3.12665H20.0198C20.6418 3.12665 21.1819 3.33822 21.6402 3.76137C22.0985 4.18452 22.344 4.70532 22.3768 5.32377V7.03265C22.3768 7.4558 22.2213 7.82199 21.9103 8.13122C21.5993 8.44045 21.231 8.59506 20.8054 8.59505V21.8754C20.8054 22.7543 20.5026 23.4948 19.897 24.097C19.2914 24.6992 18.5467 25.0003 17.6628 25.0002H5.09216C4.20829 25.0002 3.46354 24.6992 2.85791 24.097C2.25229 23.4948 1.94948 22.7543 1.9495 21.8754V8.59505C1.52393 8.59505 1.15565 8.44044 0.844649 8.13122C0.533649 7.822 0.378157 7.45581 0.378174 7.03265ZM1.9495 7.03265H20.8054V5.47025C20.8054 5.2424 20.7318 5.05523 20.5845 4.90875C20.4371 4.76226 20.2489 4.68902 20.0197 4.68902H2.73514C2.50599 4.68902 2.31775 4.76226 2.17043 4.90875C2.02311 5.05523 1.94945 5.2424 1.94945 5.47025V7.03265H1.9495ZM3.52083 21.8754C3.52083 22.2986 3.67632 22.6648 3.9873 22.974C4.29829 23.2833 4.66657 23.4379 5.09216 23.4378H17.6628C18.0883 23.4378 18.4566 23.2832 18.7676 22.974C19.0786 22.6648 19.2341 22.2986 19.2341 21.8754V8.59505H3.52083V21.8754ZM5.09216 21.0942V10.9386C5.09216 10.7108 5.16582 10.5236 5.31314 10.3771C5.46046 10.2307 5.64869 10.1574 5.87785 10.1574H7.44917C7.67833 10.1574 7.86656 10.2307 8.01388 10.3771C8.1612 10.5236 8.23486 10.7108 8.23486 10.9386V21.0942C8.23486 21.3221 8.1612 21.5093 8.01388 21.6557C7.86656 21.8022 7.67833 21.8755 7.44917 21.8755H5.87785C5.64869 21.8755 5.46046 21.8022 5.31314 21.6557C5.16582 21.5093 5.09216 21.3221 5.09216 21.0942ZM5.87782 21.0942H7.44915V10.9386H5.87782V21.0942ZM6.66349 3.12665H16.0915V2.34545C16.0915 2.1176 16.0178 1.93043 15.8705 1.78395C15.7232 1.63746 15.5349 1.56422 15.3058 1.56422H7.44912C7.21997 1.56422 7.03174 1.63746 6.88442 1.78395C6.7371 1.93043 6.66343 2.1176 6.66343 2.34545V3.12665H6.66349ZM9.80614 21.0942V10.9386C9.80614 10.7108 9.8798 10.5236 10.0271 10.3771C10.1744 10.2307 10.3627 10.1574 10.5918 10.1574H12.1632C12.3923 10.1574 12.5805 10.2307 12.7279 10.3771C12.8752 10.5236 12.9488 10.7108 12.9488 10.9386V21.0942C12.9488 21.3221 12.8752 21.5093 12.7279 21.6557C12.5805 21.8022 12.3923 21.8755 12.1632 21.8755H10.5918C10.3627 21.8755 10.1744 21.8022 10.0271 21.6557C9.8798 21.5093 9.80614 21.3221 9.80614 21.0942ZM10.5918 21.0942H12.1631V10.9386H10.5918V21.0942ZM14.5201 21.0942V10.9386C14.5201 10.7108 14.5938 10.5236 14.7411 10.3771C14.8884 10.2307 15.0767 10.1574 15.3058 10.1574H16.8771C17.1063 10.1574 17.2945 10.2307 17.4419 10.3771C17.5892 10.5236 17.6628 10.7108 17.6628 10.9386V21.0942C17.6628 21.3221 17.5892 21.5093 17.4419 21.6557C17.2945 21.8022 17.1063 21.8755 16.8771 21.8755H15.3058C15.0767 21.8755 14.8884 21.8022 14.7411 21.6557C14.5938 21.5093 14.5201 21.3221 14.5201 21.0942ZM15.3058 21.0942H16.8771V10.9386H15.3058V21.0942Z" fill="white"/>
</g>
<defs>
<clipPath id="clip0_15_286">
<rect width="22" height="25" fill="white" transform="translate(0.378174)"/>
</clipPath>
</defs>
</svg>
